<?xml version="1.0" standalone="no"?>
<!DOCTYPE svg PUBLIC "-//W3C//DTD SVG 20010904//EN"
 "http://www.w3.org/TR/2001/REC-SVG-20010904/DTD/svg10.dtd">
<svg version="1.0" xmlns="http://www.w3.org/2000/svg"
 width="512.000000pt" height="512.000000pt" viewBox="0 0 512.000000 512.000000"
 preserveAspectRatio="xMidYMid meet">

<g transform="translate(0.000000,512.000000) scale(0.100000,-0.100000)"
fill="#000000" stroke="none">
<path d="M1499 4310 l-305 -6 -50 -34 c-113 -78 -351 -343 -414 -462 -32 -59
-32 -60 -28 -181 4 -96 9 -134 27 -180 46 -118 189 -232 305 -244 172 -18 345
105 390 277 13 53 14 54 21 25 32 -141 120 -240 255 -285 195 -66 411 55 463
260 l14 55 8 -35 c23 -106 116 -219 222 -268 50 -22 72 -26 153 -26 83 -1 103
3 152 26 105 49 186 144 223 263 9 27 13 33 14 18 4 -96 107 -230 213 -279 54
-25 75 -29 148 -29 71 0 94 4 142 27 32 15 73 39 92 53 49 37 102 120 122 190
11 37 19 52 22 40 26 -144 133 -260 276 -301 115 -32 227 -1 327 93 94 88 129
180 129 341 0 97 -2 108 -30 161 -61 114 -309 390 -415 463 l-40 27 -385 11
c-409 11 -1542 11 -2051 0z"/>
<path d="M2150 3214 c-23 -41 -115 -120 -174 -148 -77 -36 -178 -51 -256 -38
-116 21 -224 87 -287 177 l-21 29 -28 -33 c-97 -115 -266 -196 -369 -177 l-33
7 -7 -168 c-10 -211 0 -1014 14 -1188 34 -422 90 -705 149 -758 33 -30 335
-71 727 -99 230 -16 1156 -16 1390 0 309 22 596 56 697 83 32 8 41 18 67 72
57 116 95 327 123 672 14 185 18 987 4 1228 l-8 158 -33 -7 c-92 -17 -252 53
-341 149 l-55 60 -16 -24 c-59 -88 -177 -160 -293 -181 -153 -26 -327 45 -420
173 l-27 38 -32 -44 c-64 -89 -166 -147 -293 -166 -170 -27 -333 39 -439 179
l-25 33 -14 -27z m-179 -344 c73 -14 130 -43 192 -99 l52 -47 85 7 c110 10
411 10 520 0 l85 -8 46 43 c84 77 188 114 319 114 236 0 387 -160 515 -543 68
-204 194 -681 207 -785 14 -105 3 -183 -31 -231 -69 -96 -338 -105 -515 -17
-140 69 -241 205 -267 361 -12 67 -15 74 -33 70 -60 -13 -194 -26 -384 -37
-259 -14 -646 4 -788 37 -18 4 -21 -3 -33 -70 -26 -156 -126 -292 -265 -361
-179 -88 -448 -79 -517 17 -34 48 -45 126 -31 231 13 105 150 621 212 803 129
374 273 522 511 524 37 1 90 -4 120 -9z"/>
<path d="M2412 2274 c-82 -83 -155 -160 -161 -173 l-12 -22 90 7 91 7 0 -82 0
-81 140 0 140 0 0 81 0 82 91 -7 c90 -7 90 -7 79 15 -7 12 -79 89 -161 173
l-148 151 -149 -151z"/>
</g>
</svg>
